<!DOCTYPE svg PUBLIC "-//W3C//DTD SVG 1.1//EN" "http://www.w3.org/Graphics/SVG/1.1/DTD/svg11.dtd">

<!-- Uploaded to: SVG Repo, www.svgrepo.com, Transformed by: SVG Repo Mixer Tools -->
<svg height="28px" width="28px" version="1.1" id="_x32_" xmlns="http://www.w3.org/2000/svg" xmlns:xlink="http://www.w3.org/1999/xlink" viewBox="-25.6 -25.6 563.20 563.20" xml:space="preserve" fill="#4d52ff" stroke="gray" stroke-width="7.68">

<g id="SVGRepo_bgCarrier" stroke-width="0"/>

<g id="SVGRepo_tracerCarrier" stroke-linecap="round" stroke-linejoin="round" stroke="gray" stroke-width="33.792"> <style type="text/css"> .st0{fill:#fcfcfc;} </style> <g> <path class="st0" d="M512,255.995L277.045,65.394v103.574c-17.255,0-36.408,0-57.542,0c-208.59,0-249.35,153.44-201.394,266.128 c9.586-103.098,142.053-100.701,237.358-100.701c7.247,0,14.446,0,21.578,0v112.211L512,255.995z"/> </g> </g>

<g id="SVGRepo_iconCarrier"> <style type="text/css"> .st0{fill:#fcfcfc;} </style> <g> <path class="st0" d="M512,255.995L277.045,65.394v103.574c-17.255,0-36.408,0-57.542,0c-208.59,0-249.35,153.44-201.394,266.128 c9.586-103.098,142.053-100.701,237.358-100.701c7.247,0,14.446,0,21.578,0v112.211L512,255.995z"/> </g> </g>

</svg>
